# xmcd
#
# Track frame offsets:
#   150
#   12938
#   32800
#   53934
#   73838
#   90430
#   102753
#   120634
#   142396
#   160801
#   178378
#   191843
#   206271
#   228254
#
# Disc length: 3223 seconds
#
# Revision: 0
# Processed by: cddbd v1.5PL3 Copyright (c) Steve Scherf et al.
# Submitted via: Media_Universe 3.0
#
DISCID=c60c950e
DTITLE=Desperate Blues Band - The Blues House
DYEAR=1900
DGENRE=Blues
TTITLE0=Who told you
TTITLE1=Stay with me
TTITLE2=Imaginations
TTITLE3=Help me
TTITLE4=Callin'Card
TTITLE5=Blues is a woman
TTITLE6=Call my Boss
TTITLE7=Cut you loose
TTITLE8=Free me
TTITLE9=Devil in the closet
TTITLE10=TV Smile
TTITLE11=Tough on me
TTITLE12=Misunderstanding
TTITLE13=Your lies
EXTD=
EXTT0=
EXTT1=
EXTT2=
EXTT3=
EXTT4=
EXTT5=
EXTT6=
EXTT7=
EXTT8=
EXTT9=
EXTT10=
EXTT11=
EXTT12=
EXTT13=
PLAYORDER=
